<?xml version="1.0" encoding="UTF-8"?>
<svg id="Layer_2" xmlns="http://www.w3.org/2000/svg" viewBox="0 0 165.25 166.58">
  <defs>
    <style>
      .cls-1 {
        fill: #543780;
      }
    </style>
  </defs>
  <g id="Layer_9">
    <g>
      <path class="cls-1" d="M49.56,156.6c-.47.35-.85.81-1.06,1.44-.42,1.26-.76,7.71,1.29,6.22,3.52-2.55,9.68-6.73,13.94-5.84,4.18.88,6.9,4.9,10.69,6.88,4.11,2.14,9.48,1.55,13.03-1.44,1.9-1.61,3.34-3.84,5.59-4.9,2.54-1.2,5.59-.62,8.16.51,2.58,1.13,4.92,2.77,7.55,3.77,2.63,1,5.78,1.26,8.11-.3,5.93-3.97-.95-8.48-4-11.08-4.3-3.66-10.49-5.05-15.72-2.48-4.26,2.1-7.75,6.46-12.5,6.38-7.17-.12-11.29-10.26-18.45-9.94-5.6.25-8.33,6.19-12.6,8.9-1.22.77-2.9,1.05-4.03,1.9Z"/>
      <path class="cls-1" d="M71.04,131.95c-3.23-5.55-4.38-28.68-23.5-61.52C34.14,47.44,16.28,29.16,1.61,19.64c-2.93-2.12-2.29-5.03,5.64-9.65C16.45,4.63,40.84-6.38,62.08,30.11c20.14,34.58,24.72,74.19,19.77,91.94-.84,3.68-2.09,7.37-6.02,10.09-2.04,1.61-3.58,1.87-4.78-.19Z"/>
      <path class="cls-1" d="M92.64,74.55c12.13-12.37,32.48-49.29,23.98-63.88C112.18,3.06,94.21-1.55,84.13.48c-2.52.41-4.81,1.95-5.81,5.72-2.68,14.73,1.71,51.47,5.3,66.38,1.82,7.86,3.81,6.91,9.01,1.97Z"/>
      <path class="cls-1" d="M92.85,123.08c6.18-3.61,7.23-18.23,22.46-27.1,9.84-5.73,23.28-7.82,33.66-4.95,3.01.8,4.14-.92,5.51-2.57,7.58-8.87,13.65-20.7,9.31-28.15-5.54-9.53-29.37-10.31-48.57.87-23.07,13.64-28.68,37.94-26.5,56.64.82,5.05,2.37,6.26,4.12,5.24Z"/>
    </g>
  </g>
</svg>